<?xml version="1.0" encoding="UTF-8" standalone="no"?>
<!-- Created with Inkscape (http://www.inkscape.org/) -->

<svg
   width="108.15524mm"
   height="102.57735mm"
   viewBox="0 0 108.15524 102.57735"
   version="1.1"
   id="svg1"
   xml:space="preserve"
   xmlns="http://www.w3.org/2000/svg"
   xmlns:svg="http://www.w3.org/2000/svg"><defs
     id="defs1" /><g
     id="layer1"
     transform="translate(-49.131926,-91.790861)"><path
       style="fill:none;stroke:#000000;stroke-opacity:1"
       d="m 68.037687,193.4594 c -4.52282,-0.81654 -8.73379,-3.13553 -12.10924,-6.66858 -3.24779,-3.39942 -5.10686,-7.05423 -5.89909,-11.59723 -0.3377,-1.93651 -0.39743,-6.76253 -0.39743,-32.10767 0,-32.38954 -0.006,-32.25479 1.46702,-36.17722 2.07196,-5.5193 6.91427,-10.547292 12.36226,-12.83629 4.05248,-1.702671 5.00563,-1.77932 22.15405,-1.781536 10.10628,-0.0013 15.828973,0.09542 16.489033,0.278714 0.55601,0.154393 1.47178,0.69708 2.03507,1.205971 2.85335,2.577839 2.30822,7.196321 -1.07335,9.093701 l -1.17888,0.66146 -16.271873,0.13229 -16.27188,0.13229 -1.77888,0.84269 c -2.47218,1.17112 -4.23219,2.89875 -5.43741,5.33734 l -0.98579,1.99461 v 31.10226 31.10226 l 0.84269,1.77888 c 1.17112,2.47218 2.89875,4.2322 5.33734,5.43742 l 1.99461,0.98578 h 31.115983 31.11599 l 1.9946,-0.98578 c 2.43859,-1.20522 4.16622,-2.96524 5.33734,-5.43742 l 0.84269,-1.77888 0.1323,-15.875 0.13229,-15.875 0.72862,-1.23948 c 0.79056,-1.34484 1.67681,-2.08017 3.08117,-2.55651 2.92932,-0.99357 6.25229,0.70362 7.133,3.64314 0.21068,0.70321 0.302,5.48829 0.302,15.82545 0,16.30175 -0.0954,17.59099 -1.58893,21.46372 -2.1636,5.61042 -7.3459,10.72284 -13.03385,12.85811 -3.93284,1.4764 -3.74817,1.46908 -36.41031,1.44329 -24.861513,-0.0196 -30.424873,-0.0893 -32.161143,-0.40278 z m 30.27756,-33.85724 c -0.58342,-0.24972 -5.4565,-4.92021 -13.17107,-12.62349 -11.6393,-11.62229 -12.26533,-12.29632 -12.65546,-13.62594 -0.51379,-1.75107 -0.31443,-3.0584 0.71357,-4.67939 0.87934,-1.38656 2.88567,-2.51479 4.47547,-2.51669 2.46771,-0.003 2.43966,-0.0256 12.90217,10.40171 l 9.859473,9.82627 23.74261,-23.71675 c 13.05844,-13.04422 24.15934,-23.930402 24.66866,-24.191532 1.94182,-0.99555 4.97665,-0.4096 6.53581,1.26192 1.42155,1.523982 1.83612,4.435112 0.89012,6.250382 -0.7769,1.49077 -52.55993,53.11878 -53.78566,53.62464 -1.234,0.50927 -2.970723,0.50464 -4.175693,-0.0111 z"
       id="path1" /></g></svg>
