<?xml version="1.0" encoding="UTF-8" standalone="no"?>
<!-- Created with Inkscape (http://www.inkscape.org/) -->

<svg
   width="469.43881"
   height="306.94153"
   viewBox="0 0 124.20569 81.211615"
   version="1.1"
   id="svg1"
   xml:space="preserve"
   xmlns="http://www.w3.org/2000/svg"
   xmlns:svg="http://www.w3.org/2000/svg"><defs
     id="defs1" /><g
     id="layer1"
     transform="translate(-41.185545,-103.12873)"><path
       style="fill:none;stroke:#000000;stroke-opacity:1"
       d="m 98.352491,183.72609 c -0.60482,-0.11191 -1.56544,-0.4411 -2.13472,-0.73152 -1.00427,-0.51234 -2.7978,-2.25878 -3.02757,-2.94808 -0.0918,-0.27556 -0.23629,-0.27386 -0.76214,0.009 -1.05829,0.56915 -3.63347,0.45396 -5.14673,-0.23021 -1.60525,-0.72577 -3.0917,-2.12421 -3.70608,-3.48668 -0.41941,-0.93008 -0.52469,-0.99975 -1.31648,-0.87126 -1.17572,0.19079 -3.51147,-0.5308 -4.84494,-1.49676 -1.49671,-1.08421 -2.38675,-2.51686 -2.78914,-4.48953 l -0.3368,-1.65116 -1.334,-0.4516 c -4.11049,-1.39154 -5.9876,-5.65665 -4.1895,-9.51921 l 0.66019,-1.41816 -3.47434,-4.34765 c -3.28957,-4.11644 -3.49431,-4.31913 -3.84997,-3.81137 -1.09486,1.56314 -4.53034,2.54001 -6.56789,1.86756 -1.33507,-0.44062 -10.91188,-5.96703 -11.86538,-6.84707 -1.68916,-1.55901 -2.42085,-4.3385 -1.6907,-6.4225 0.22172,-0.63281 4.14728,-7.63948 8.72348,-15.57036 8.90783,-15.43792 9.86078,-16.8206 12.04359,-17.47458 0.94867,-0.28423 1.31914,-0.26326 2.63448,0.14914 1.46211,0.45842 10.67367,5.57006 12.41728,6.89055 1.23415,0.93466 2.20942,3.07785 2.21359,4.86444 l 0.003,1.46941 5.82005,2.05796 5.82005,2.05797 1.651,-1.37447 c 2.24229,-1.86671 4.85033,-3.06537 7.514489,-3.45368 2.22999,-0.32502 3.04108,-0.24194 9.48234,0.97134 4.59509,0.86553 10.49339,0.80009 15.0151,-0.16658 l 1.25677,-0.26868 v -1.38134 c 0,-1.69731 1.0059,-3.86771 2.21017,-4.76882 0.4579,-0.34263 3.102,-1.93792 5.87577,-3.5451 3.39776,-1.96872 5.60387,-3.07153 6.76153,-3.38 3.79807,-1.01206 4.0076,-0.76058 14.45846,17.35244 4.57597,7.93088 8.50135,14.93755 8.72306,15.57036 0.72998,2.08348 -3e-4,4.85883 -1.69069,6.42532 -0.95221,0.88242 -10.50856,6.39645 -11.85685,6.84143 -2.27297,0.75015 -5.59034,-0.34732 -6.82843,-2.25901 -0.32307,-0.49883 -0.67933,-0.90844 -0.7917,-0.91024 -0.32412,-0.005 -4.4259,2.10233 -4.4259,2.27406 0,0.0851 0.1923,0.81624 0.42733,1.62472 0.74397,2.55918 0.0212,5.13481 -1.99515,7.10983 l -1.11283,1.09002 0.44049,1.51524 c 1.19958,4.1264 -1.71677,8.55127 -5.9678,9.05474 l -1.30034,0.15401 -0.40751,1.40176 c -0.22413,0.77097 -0.79812,1.91569 -1.27555,2.54382 -0.93866,1.23497 -3.08974,2.57867 -4.15447,2.59514 -0.94424,0.0146 -1.22986,0.27479 -1.45457,1.32505 -0.28613,1.33732 -1.28895,3.19814 -2.15878,4.00578 -1.48054,1.37469 -2.89517,1.87824 -4.98074,1.77293 -1.79716,-0.0908 -2.06815,-0.19511 -5.22267,-2.01118 -3.19801,-1.8411 -3.91033,-2.15305 -3.91033,-1.71247 0,0.11164 -0.53568,0.81535 -1.1904,1.56379 -1.79879,2.05629 -3.9769,2.88831 -6.391559,2.44152 z m 2.108949,-4.30304 c 1.22643,-0.51243 4.1501,-4.85554 4.1501,-6.16497 0,-1.70605 -2.15758,-3.11215 -3.75813,-2.44918 -1.154469,0.4782 -4.179369,4.92699 -4.179369,6.1467 0,1.05127 1.14986,2.44072 2.18506,2.64035 0.32618,0.0629 0.62665,0.13058 0.66771,0.1504 0.041,0.0198 0.46164,-0.12567 0.934629,-0.3233 z m 16.65969,-0.9374 c 0.92865,-0.90119 1.21749,-2.40879 0.63254,-3.30154 -0.23056,-0.35188 -2.21889,-1.68577 -4.4185,-2.96421 -2.19962,-1.27844 -4.16931,-2.56715 -4.37709,-2.86381 -0.52844,-0.75445 -0.47084,-1.55489 0.17058,-2.37032 1.00484,-1.27745 1.84018,-1.02433 7.47458,2.26489 5.71159,3.33428 6.27936,3.49528 7.61522,2.15941 1.12786,-1.12786 1.33586,-2.72482 0.4674,-3.58867 -0.34509,-0.34328 -2.74474,-1.85578 -5.33254,-3.36113 -2.5878,-1.50534 -4.82022,-2.95212 -4.96094,-3.21505 -0.44809,-0.83726 -0.28127,-1.83437 0.42505,-2.5407 0.53779,-0.53779 0.85754,-0.65112 1.52136,-0.53922 0.46225,0.0779 3.51936,1.70418 6.79358,3.61389 3.27422,1.90971 6.23358,3.54305 6.57636,3.62964 1.44328,0.36458 3.21322,-1.32992 3.21322,-3.07627 0,-0.99076 -1.4358,-2.09264 -6.74687,-5.17773 -2.91042,-1.6906 -5.55956,-3.32442 -5.88698,-3.63071 -0.74484,-0.69677 -0.7636,-1.76685 -0.0469,-2.67793 0.95644,-1.21592 1.74525,-0.9817 6.99418,2.07676 4.94487,2.88128 5.80356,3.17393 6.95217,2.36941 0.73781,-0.51678 1.38028,-1.73278 1.38028,-2.61246 0,-0.36873 -0.32743,-1.01654 -0.72761,-1.43959 -0.57115,-0.60377 -23.53508,-14.09351 -27.23894,-16.00101 -1.59021,-0.81896 -3.42251,-0.54642 -6.94049,1.03236 -1.498219,0.67236 -1.511169,0.68814 -2.910849,3.54723 -2.01017,4.10612 -3.23053,5.56059 -5.68224,6.77229 -3.84878,1.90217 -7.1209,1.438 -8.62278,-1.22321 -0.76736,-1.35969 -0.80984,-2.41001 -0.43265,-10.69704 l 0.22882,-5.02709 2.49452,-2.54084 2.49452,-2.54084 -5.0518,-1.79819 c -2.93007,-1.04297 -5.14468,-1.69824 -5.27294,-1.56021 -0.38634,0.4158 -12.98131,22.36367 -12.98131,22.62112 0,0.28653 6.90795,8.9731 7.12834,8.96371 0.0812,-0.003 0.68158,-0.7895 1.33408,-1.74673 2.09612,-3.07503 3.67441,-4.06781 6.4669,-4.06781 2.07438,0 4.01895,0.9162 5.36673,2.52857 0.75597,0.90438 1.05432,1.0959 1.41035,0.90536 1.03737,-0.55518 2.87409,-0.77928 4.24937,-0.51847 2.79604,0.53026 5.12428,2.75855 5.79245,5.54379 0.27518,1.14707 0.4089,1.31925 1.14879,1.47915 1.48077,0.32001 3.265679,1.38729 4.257049,2.54548 1.55161,1.81271 1.99766,4.00424 1.3182,6.47664 -0.13329,0.48499 0.0377,0.65799 1.12434,1.13754 2.88264,1.27215 4.43833,3.80778 4.28305,6.98096 l -0.0911,1.86175 1.71979,1.02413 c 2.85695,1.70131 4.84412,2.58762 5.42054,2.41763 0.29292,-0.0864 0.86362,-0.4783 1.26822,-0.87093 z m -25.428499,-2.87689 c 0.92352,-0.94887 7.64616,-10.75861 7.80407,-11.38775 0.33756,-1.34496 -1.34913,-3.22404 -2.89395,-3.22404 -1.04608,0 -1.85241,0.84058 -4.76691,4.96939 -4.53283,6.42143 -4.68723,6.67086 -4.68092,7.56186 0.0153,2.16456 3.08577,3.57235 4.53771,2.08054 z m -8.70216,-4.82423 c 0.71304,-0.56087 8.92139,-12.09309 9.47961,-13.31825 0.27098,-0.59474 0.25303,-0.8708 -0.10555,-1.62275 -0.81261,-1.70407 -2.74529,-2.42039 -3.95757,-1.46681 -0.39496,0.31067 -2.37567,2.91677 -4.40159,5.79132 -5.93359,8.4191 -5.88706,8.32005 -4.61697,9.82947 1.16831,1.38846 2.47462,1.67387 3.60207,0.78702 z m -6.62036,-7.60614 c 0.40175,-0.2539 1.97856,-2.24757 3.50402,-4.43038 3.21184,-4.59586 3.36849,-5.14997 1.87741,-6.64104 -1.08215,-1.08216 -2.60012,-1.24361 -3.53177,-0.37564 -1.23528,1.15084 -5.92261,8.20097 -5.94361,8.9397 -0.0291,1.02202 0.46121,1.84545 1.46217,2.45577 1.04127,0.63491 1.68869,0.6476 2.63178,0.0516 z m -17.71178,-17.5934 c 1.09434,-1.01325 17.11363,-29.10079 17.11363,-30.00632 0,-0.48551 -0.23016,-0.99897 -0.59531,-1.32803 -1.1953,-1.07719 -10.10206,-5.99395 -10.8581,-5.99395 -0.44843,0 -0.99376,0.25685 -1.35759,0.63941 -1.02205,1.07467 -17.08692,29.19586 -17.08692,29.91026 0,0.36202 0.14883,0.85515 0.33073,1.09584 0.5621,0.74377 10.32861,6.26193 11.09775,6.27032 0.39207,0.004 1.00218,-0.26011 1.35581,-0.58753 z m 79.830689,-0.86532 c 2.78266,-1.39556 2.89858,-1.48691 2.60184,-2.05052 -0.67885,-1.2894 -12.22168,-21.2488 -12.4657,-21.55521 -0.1436,-0.18029 -0.36558,-0.26323 -0.4933,-0.18429 -0.66819,0.41296 -5.82569,1.19435 -8.83595,1.33869 -3.79304,0.18187 -6.41727,-0.061 -12.17083,-1.12639 -7.12449,-1.31926 -8.557599,-0.73462 -16.075859,6.55814 l -3.64045,3.53125 -0.28557,5.76744 c -0.15706,3.1721 -0.21924,5.9403 -0.13817,6.15157 0.34621,0.90221 3.33219,0.0357 4.68657,-1.35999 0.49577,-0.5109 1.6753,-2.50036 2.62119,-4.42104 l 1.71979,-3.49214 1.98438,-0.9844 c 4.155029,-2.0612 7.264259,-2.69991 9.905559,-2.03482 0.62923,0.15844 6.9625,3.6652 14.07393,7.79279 7.11143,4.12759 13.08069,7.5103 13.26501,7.51713 0.18433,0.007 1.64573,-0.64486 3.24756,-1.44821 z m 16.36019,-1.37826 c 2.70446,-1.5614 5.12798,-3.04968 5.3856,-3.3073 0.25761,-0.25761 0.46839,-0.78726 0.46839,-1.17698 0,-0.76038 -16.0011,-28.8152 -17.08831,-29.96103 -0.36331,-0.38289 -0.90738,-0.63941 -1.3562,-0.63941 -0.75603,0 -9.6628,4.91676 -10.85809,5.99395 -0.36617,0.32998 -0.59531,0.8424 -0.59531,1.33124 0,0.55982 2.43428,5.02381 8.23496,15.10128 4.52924,7.86858 8.52447,14.57441 8.8783,14.90183 0.35383,0.32742 0.95161,0.59531 1.32839,0.59531 0.38895,0 2.81052,-1.2271 5.60227,-2.83889 z"
       id="path1-1" /></g></svg>
