<?xml version="1.0" encoding="UTF-8" standalone="no"?>
<!-- Created with Inkscape (http://www.inkscape.org/) -->

<svg
   width="510.55078"
   height="510.64285"
   viewBox="0 0 135.08322 135.10759"
   version="1.1"
   id="svg1"
   xml:space="preserve"
   xmlns="http://www.w3.org/2000/svg"
   xmlns:svg="http://www.w3.org/2000/svg"><defs
     id="defs1" /><g
     id="layer1"
     transform="translate(-39.82362,-57.311255)"><path
       style="fill:none;stroke:#000000;stroke-opacity:1"
       d="m 65.21727,191.91934 c -2.71068,-0.71548 -4.38018,-1.69127 -6.55914,-3.83367 -2.05845,-2.02391 -3.50803,-4.60981 -4.04896,-7.22292 -0.19649,-0.94919 -0.29024,-8.2351 -0.29024,-22.55573 v -21.15364 h -1.7965 c -6.3363,0 -11.50088,-4.3312 -12.54082,-10.51719 -0.41188,-2.45003 -0.0142,-5.04937 1.14348,-7.47448 0.75837,-1.5886 3.04369,-3.94249 29.96002,-30.858811 33.96286,-33.962864 30.3812,-30.921388 36.41324,-30.921388 6.03628,0 2.45269,-3.042812 36.41689,30.921388 33.96357,33.963571 30.92139,30.380891 30.92139,36.415061 0,3.54556 -0.009,3.6023 -0.90745,5.42952 -2.12384,4.32172 -6.50784,7.0059 -11.44254,7.0059 h -1.78777 l -0.0749,21.89427 -0.0749,21.89427 -0.70718,1.82013 c -1.87547,4.82707 -5.73875,8.20695 -10.61484,9.28661 -1.62379,0.35954 -3.70277,0.41099 -13.99271,0.34631 -11.7323,-0.0737 -12.10691,-0.0919 -12.81594,-0.62148 -0.40171,-0.30004 -0.97587,-0.87419 -1.2759,-1.2759 -0.53497,-0.71626 -0.54807,-1.07173 -0.67781,-18.39332 l -0.13229,-17.66293 -0.80325,-1.30179 c -0.90305,-1.46353 -2.92293,-2.8467 -4.54977,-3.11557 -1.29694,-0.21435 -13.6616,-0.21435 -14.95854,0 -1.62684,0.26887 -3.64672,1.65204 -4.54977,3.11557 l -0.80325,1.30179 -0.13229,17.66293 c -0.12973,17.32159 -0.14283,17.67706 -0.67781,18.39332 -0.30003,0.40171 -0.87419,0.97586 -1.27591,1.2759 -0.71065,0.53077 -1.06422,0.54701 -13.08052,0.60092 -11.45893,0.0514 -12.48969,0.0186 -14.28408,-0.45507 z m 21.38082,-22.20919 c 0,-9.71306 0.0998,-15.28578 0.29024,-16.20573 1.02756,-4.96389 5.0394,-9.25655 10.1608,-10.87203 1.75183,-0.55259 2.31757,-0.58422 10.45104,-0.58422 7.59554,0 8.7842,0.0568 10.18646,0.48649 5.18027,1.5875 9.02171,5.54121 10.31401,10.61545 0.33566,1.31799 0.40161,4.02265 0.40161,16.47031 v 14.89337 l 9.45886,-0.0116 c 10.17266,-0.0125 10.57754,-0.059 12.3639,-1.42157 0.50579,-0.38578 1.24969,-1.26293 1.65311,-1.94922 l 0.73351,-1.24781 0.13229,-23.9917 c 0.13076,-23.71492 0.13858,-24.00014 0.6778,-24.7222 1.27417,-1.70619 1.61455,-1.80981 6.41821,-1.9538 5.11083,-0.1532 5.92558,-0.44507 6.90813,-2.47476 0.68745,-1.42009 0.69481,-2.61251 0.0246,-3.99014 -0.74965,-1.54099 -56.12507,-56.862348 -57.47808,-57.421976 -1.32385,-0.547563 -2.46939,-0.512101 -3.76143,0.116442 -1.54098,0.749651 -56.86234,56.125064 -57.42197,57.478084 -0.55301,1.33702 -0.51113,2.47032 0.14107,3.81759 0.98256,2.02969 1.7973,2.32156 6.90814,2.47476 4.80367,0.14399 5.14406,0.24761 6.4182,1.95382 0.53922,0.72208 0.54704,1.00731 0.67781,24.7222 l 0.13229,23.99168 0.7335,1.24781 c 0.40343,0.68629 1.14733,1.56344 1.65311,1.94922 1.78636,1.36253 2.19124,1.40908 12.36391,1.42157 l 9.45885,0.0116 z"
       id="path1" /></g></svg>
