<?xml version="1.0" encoding="UTF-8" standalone="no"?>
<!-- Created with Inkscape (http://www.inkscape.org/) -->

<svg
   width="460.89288"
   height="419.61069"
   viewBox="0 0 121.94457 111.022"
   version="1.1"
   id="svg1"
   xml:space="preserve"
   xmlns="http://www.w3.org/2000/svg"
   xmlns:svg="http://www.w3.org/2000/svg"><defs
     id="defs1" /><g
     id="layer1"
     transform="translate(-44.203414,-66.09401)"><path
       style="fill:none;stroke:#000000;stroke-opacity:1"
       d="m 69.177448,176.3308 c -13.07213,-1.06324 -20.00847,-5.83834 -22.8985,-15.7637 -1.61089,-5.53236 -1.57546,-4.65604 -1.57546,-38.97002 0,-28.277432 0.0441,-31.612687 0.4492,-33.998968 2.19746,-12.943129 8.04507,-18.528136 21.51121,-20.545186 2.97622,-0.445799 68.266872,-0.64917 73.686462,-0.229523 6.18493,0.478908 10.48199,1.504234 14.02291,3.346028 6.11376,3.180035 9.52313,8.895728 10.90284,18.278231 0.49584,3.371921 0.49584,62.926898 0,66.298818 -2.13085,14.49048 -8.85583,20.35985 -24.76574,21.6148 -4.14845,0.32722 -67.266732,0.30025 -71.332922,-0.0305 z m 71.437492,-8.45203 c 10.79852,-1.0049 14.2167,-3.67974 16.05497,-12.56355 0.38399,-1.85573 0.44705,-5.55285 0.54125,-31.73377 0.11133,-30.939903 0.0417,-33.534164 -1.01178,-37.690194 -1.78499,-7.041935 -5.52217,-9.603359 -15.43195,-10.576911 -3.96803,-0.389825 -67.245282,-0.389825 -71.213302,0 -6.17336,0.606479 -9.7991,1.832496 -12.08553,4.086623 -2.2115,2.180263 -3.57841,5.895426 -4.15596,11.29557 -0.37268,3.484711 -0.37268,58.316362 0,61.801072 1.18855,11.11307 4.90092,14.43262 17.32001,15.48729 2.93147,0.24895 67.214232,0.15146 69.982292,-0.10613 z M 63.678918,149.73205 c -2.07564,-1.02304 -2.64164,-3.41743 -1.69384,-7.16549 2.11815,-8.37614 9.05976,-14.60445 17.7923,-15.964 3.17544,-0.49438 11.53725,-0.17192 13.99217,0.53958 7.877622,2.28316 13.697292,8.56691 15.249172,16.46517 0.51842,2.63849 0.37699,3.82658 -0.5927,4.97898 -1.87739,2.23115 -5.00807,2.10751 -6.74263,-0.2663 -0.26583,-0.3638 -0.65667,-1.57726 -0.86853,-2.69658 -0.51223,-2.70627 -1.541634,-4.73662 -3.424422,-6.75417 -1.75553,-1.88118 -4.35795,-3.33392 -6.78175,-3.78574 -1.87944,-0.35035 -8.4393,-0.35035 -10.31875,0 -5.09566,0.94989 -9.44135,5.38885 -10.30847,10.52973 -0.3605,2.1373 -0.99276,3.30073 -2.19067,4.03111 -1.05487,0.64316 -2.90487,0.68262 -4.11188,0.0877 z m 67.733332,-1.85208 c -1.30072,-0.6411 -1.99855,-1.79787 -2.11831,-3.51143 -0.12099,-1.73111 0.52705,-2.93805 2.06148,-3.83945 0.8679,-0.50985 1.3426,-0.54347 7.67202,-0.54347 6.32942,0 6.80412,0.0336 7.67202,0.54347 1.53444,0.9014 2.18247,2.10834 2.06148,3.83945 -0.12122,1.7346 -0.83056,2.89038 -2.1615,3.52196 -1.33924,0.6355 -13.89411,0.6268 -15.18719,-0.0105 z m -11.1227,-22.49046 c -0.48318,-0.24034 -1.19756,-0.85527 -1.5875,-1.36651 -0.5791,-0.75924 -0.70898,-1.20845 -0.70898,-2.45207 0,-1.64498 0.44029,-2.49802 1.82169,-3.52938 0.71439,-0.53337 1.0155,-0.54552 13.52414,-0.54552 12.56648,0 12.80674,0.01 13.54049,0.5535 2.59769,1.92476 2.59781,5.16977 2.6e-4,7.09509 -0.72983,0.54096 -1.02951,0.55495 -13.22916,0.61768 -11.15625,0.0574 -12.57576,0.0178 -13.36094,-0.37279 z m -37.827742,-3.93138 c -8.01914,-1.74131 -12.9157,-9.54192 -11.02488,-17.56351 1.15884,-4.916252 5.36917,-9.170119 10.34641,-10.453398 2.02791,-0.522854 5.32455,-0.534774 7.23585,-0.02616 6.2661,1.667447 10.823218,7.571428 10.845328,14.050628 0.006,1.77071 -0.85849,5.09447 -1.77104,6.80892 -1.081328,2.03154 -4.101028,4.95086 -6.161868,5.95704 -3.08867,1.508 -6.27365,1.92051 -9.4698,1.22648 z m 5.70628,-8.82661 c 4.11966,-2.10169 4.25996,-8.01797 0.24574,-10.36264 -1.24013,-0.72435 -1.56348,-0.79622 -3.25296,-0.72306 -2.21645,0.096 -3.63211,0.86924 -4.78737,2.61494 -0.92967,1.40484 -1.13981,3.70804 -0.49286,5.40204 0.50831,1.33101 2.30136,3.06197 3.64121,3.51514 1.20958,0.4091 3.37759,0.2008 4.64624,-0.44642 z m 26.963192,-9.66964 c -2.02557,-0.7312 -2.94635,-2.14406 -2.77149,-4.252642 0.13478,-1.625259 0.8783,-2.796281 2.16232,-3.40559 0.8023,-0.380715 2.62387,-0.429494 16.03867,-0.429494 13.41479,0 15.23636,0.04878 16.03866,0.429494 1.33094,0.631577 2.04028,1.787358 2.1615,3.52195 0.12099,1.731122 -0.52704,2.938062 -2.06148,3.839462 -0.90005,0.52873 -1.32707,0.54507 -15.74181,0.60239 -12.03377,0.0478 -15.00631,-0.01 -15.82637,-0.30557 z"
       id="path1-9" /></g></svg>
