<?xml version="1.0" encoding="UTF-8" standalone="no"?>
<!-- Created with Inkscape (http://www.inkscape.org/) -->

<svg
   width="55.976467mm"
   height="26.487974mm"
   viewBox="0 0 55.976467 26.487974"
   version="1.1"
   id="svg1"
   xml:space="preserve"
   xmlns="http://www.w3.org/2000/svg"
   xmlns:svg="http://www.w3.org/2000/svg"><defs
     id="defs1" /><g
     id="layer1"
     transform="translate(-114.9416,-102.96081)"><g
       id="g106"
       transform="translate(34.726181,28.584135)"><g
         id="g95"
         transform="matrix(1,0,0,1.103644,33.32712,30.705225)"><path
           id="path94"
           style="fill:#a0ac0c;fill-opacity:1;stroke-width:0.886259"
           d="m 74.592178,41.295371 -0.46486,0.185026 c -4.752121,2.239001 -9.483354,4.437377 -14.089504,6.838705 -0.20217,0.139078 -0.368372,0.418036 -0.337078,0.565614 0.02332,0.109947 0.157819,0.176228 1.490289,0.734152 l 1.464642,0.613245 -3.477036,1.673027 c -3.899668,1.876401 -3.855165,1.850905 -3.899301,2.215282 l -0.0229,0.189149 1.05337,0.449284 1.053828,0.449744 -5.099511,2.848068 c -3.124473,1.822108 -5.123417,2.940227 -5.211042,3.018306 -0.177194,0.157889 -0.200004,0.332405 -0.122785,0.458468 0.08904,0.145358 0.324229,0.257328 0.525244,0.275337 0.06635,0.0059 3.73677,-1.549975 8.91472,-3.132303 10.233795,-3.127341 9.682897,-2.94204 9.896639,-3.320862 0.05208,-0.09232 0.07809,-0.22884 0.0577,-0.303188 -0.03493,-0.127434 -0.109938,-0.164168 -1.306637,-0.640723 -0.698207,-0.278045 -1.260115,-0.513967 -1.24893,-0.523937 0.01118,-0.01 2.039245,-0.854544 4.507049,-1.876831 3.988415,-1.6522 4.507213,-1.876025 4.666429,-2.01789 0.229243,-0.20426 0.33009,-0.378262 0.303645,-0.523479 -0.01878,-0.103128 -0.1563,-0.171224 -1.316712,-0.649426 -0.712533,-0.293632 -1.285145,-0.542663 -1.272746,-0.553706 0.01153,-0.01027 1.693611,-0.734121 3.830143,-1.648294 1.969435,0.843076 3.473008,1.490654 3.483909,1.500364 0.01241,0.01104 -0.560213,0.260075 -1.272747,0.553707 -1.160414,0.478202 -1.297935,0.54584 -1.316715,0.648968 -0.02641,0.145217 0.07443,0.319218 0.30365,0.523478 0.159217,0.141865 0.678015,0.366149 4.666428,2.018349 2.467799,1.022287 4.495852,1.866861 4.507045,1.87683 0.01117,0.01 -0.55073,0.245892 -1.248933,0.523937 -1.196689,0.476555 -1.271702,0.513289 -1.306629,0.640723 -0.02038,0.07435 0.0053,0.210407 0.0577,0.30273 0.21373,0.378823 -0.337159,0.19398 9.896628,3.321321 5.177949,1.582328 9.4685,2.872025 9.53483,2.866082 0.20102,-0.01801 0.31809,-0.08568 0.34807,-0.201514 0.037,-0.143116 -0.0637,-0.359179 -0.2409,-0.517068 -0.0876,-0.07808 -2.13086,-1.166669 -5.388215,-2.870661 l -5.246697,-2.744716 1.053372,-0.449743 1.053372,-0.449743 -0.02287,-0.188691 c -0.04414,-0.364377 8.25e-4,-0.338881 -3.898847,-2.215282 l -3.47749,-1.673026 1.46464,-0.613245 c 1.33246,-0.557923 1.466959,-0.624206 1.490285,-0.734153 0.03128,-0.147577 -0.134906,-0.426536 -0.33707,-0.565614 -0.14096,-0.09697 -4.853009,-2.436893 -8.728773,-4.347212 l -0.649397,-0.319675 -0.0023,-0.0014 c -2.38503,-1.174316 -4.310994,-2.114952 -4.400799,-2.142023 z" /><path
           id="path95"
           style="fill:#d2e20d;fill-opacity:1;stroke-width:0.886259"
           d="m 75.30927,41.556066 -0.46486,0.185026 c -4.752121,2.239001 -9.483354,4.437377 -14.089504,6.838705 -0.20217,0.139078 -0.368372,0.418036 -0.337078,0.565614 0.02332,0.109947 0.157819,0.176228 1.490289,0.734152 l 1.464642,0.613245 -3.477036,1.673027 c -3.899668,1.876401 -3.855165,1.850905 -3.899301,2.215282 l -0.0229,0.189149 1.05337,0.449284 1.053828,0.449744 -5.247156,2.744716 c -3.257355,1.703992 -5.286123,2.808671 -5.388217,2.870661 -0.380776,0.231201 -0.25949,0.461367 -0.240901,0.517526 0.03772,0.113957 0.147055,0.183505 0.34807,0.201514 0.06635,0.0059 4.35688,-1.284213 9.53483,-2.866541 10.233795,-3.127341 9.682897,-2.94204 9.896639,-3.320862 0.05208,-0.09232 0.07809,-0.22884 0.0577,-0.303188 -0.03493,-0.127434 -0.109938,-0.164168 -1.306637,-0.640723 -0.698207,-0.278045 -1.260115,-0.513967 -1.24893,-0.523937 0.01118,-0.01 2.039245,-0.854544 4.507049,-1.876831 3.988415,-1.6522 4.507213,-1.876025 4.666429,-2.01789 0.229243,-0.20426 0.33009,-0.378262 0.303645,-0.523479 -0.01878,-0.103128 -0.1563,-0.171224 -1.316712,-0.649426 -0.712533,-0.293632 -1.285145,-0.542663 -1.272746,-0.553706 0.01153,-0.01027 1.693611,-0.734121 3.830143,-1.648294 1.969435,0.843076 3.473008,1.490654 3.483909,1.500364 0.01241,0.01104 -0.560213,0.260075 -1.272747,0.553707 -1.160414,0.478202 -1.297935,0.54584 -1.316715,0.648968 -0.02641,0.145217 0.07443,0.319218 0.30365,0.523478 0.159217,0.141865 0.678015,0.366149 4.666428,2.018349 2.467799,1.022287 4.495852,1.866861 4.507045,1.87683 0.01117,0.01 -0.55073,0.245892 -1.248933,0.523937 -1.196689,0.476555 -1.271702,0.513289 -1.306629,0.640723 -0.02038,0.07435 0.0053,0.210407 0.0577,0.30273 0.21373,0.378823 -0.337159,0.19398 9.896628,3.321321 5.177949,1.582328 9.468498,2.872025 9.534828,2.866082 0.20102,-0.01801 0.31809,-0.08568 0.34807,-0.201514 0.037,-0.143116 -0.0637,-0.359179 -0.2409,-0.517068 -0.0876,-0.07808 -2.13086,-1.166669 -5.388213,-2.870661 l -5.246697,-2.744716 1.053372,-0.449743 1.053372,-0.449743 -0.02287,-0.188691 c -0.04414,-0.364377 8.25e-4,-0.338881 -3.898847,-2.215282 l -3.47749,-1.673026 1.46464,-0.613245 c 1.33246,-0.557923 1.466959,-0.624206 1.490285,-0.734153 0.03128,-0.147577 -0.134906,-0.426536 -0.33707,-0.565614 -0.14096,-0.09697 -4.853009,-2.436893 -8.728773,-4.347212 l -0.649397,-0.319675 -0.0023,-0.0014 c -2.38503,-1.174316 -4.310994,-2.114952 -4.400799,-2.142023 z" /></g><g
         id="g97"
         transform="matrix(0.97064355,0,0,0.97064355,13.967754,31.549322)"><path
           id="path96"
           style="fill:#af5207;fill-opacity:1;stroke-width:3.979;stroke-dasharray:none"
           d="m 70.352108,44.12264 c -0.94493,0.08859 -1.033411,0.339727 -1.092471,1.063189 l -0.55156,23.204904 c 0.180268,-0.130363 0.397137,-0.273344 0.654844,-0.429642 0.145049,-0.08797 0.06113,-0.04253 0.257146,-0.154926 0.109141,-0.06735 2.013657,-1.269119 5.13813,-3.280077 0,0 -0.141449,-0.618163 -0.06602,-0.632483 -0.217032,-1.237515 -0.0084,-2.99102 0.562208,-3.205009 0,0 8.253284,-0.191939 8.651926,0 0.797285,1.240221 0.826814,3.277596 0,4.3997 0,0 -0.371529,0.329635 -2.943603,0.328487 -4.582678,1.605796 -11.242971,3.753438 -11.300585,3.775734 -0.244447,0.0946 -0.478493,0.155831 -0.699565,0.201245 -2.55e-4,4e-6 -0.02696,0.0091 -0.02715,0.0091 -0.004,-3.91e-4 -0.0073,-0.0012 -0.01118,-0.0016 -0.08096,0.0157 -0.167097,0.03777 -0.241174,0.04632 l -0.01384,0.572323 c 0.191939,0.88587 0.189758,1.266463 1.592389,1.310753 l 17.24742,-0.336473 c 1.668392,-0.78252 1.357942,-0.796814 1.889465,-1.771273 0.841577,-1.373102 0.723954,-2.022857 0.768244,-4.370418 0.05906,-3.77972 -0.3105,-4.459098 -1.535956,-7.028127 1.225456,-2.554264 1.712786,-1.698085 1.830902,-6.747555 C 90.634339,46.311683 90.29958,46.48522 90.32911,46.041918 90.28482,45.008401 89.132775,44.15217 87.803967,44.12264 Z m -1.669053,25.324894 c 0,0 -0.04493,0.01862 0,0 z M 74.2652,51.092203 c 1.827018,-0.125281 8.272345,-0.177482 10.172443,0 0.542885,0.542885 0.478739,2.804065 0.02981,3.33651 -1.931419,0.177482 -10.202257,0 -10.202257,0 -0.553325,-0.417604 -0.522005,-2.824945 0,-3.33651 z" /><path
           id="path97"
           style="fill:#db650c;fill-opacity:1;stroke-width:3.979;stroke-dasharray:none"
           d="m 80.604146,65.543326 c -3.668537,1.114149 -7.280401,2.367087 -10.896607,3.629508 -0.193605,0.699131 -0.08136,1.240362 0.08536,1.993272 0.184781,0.221738 0.279048,0.246055 1.268751,0.243018 l 17.365577,0.0026 c 1.668392,-0.78252 1.358284,-0.797009 1.889807,-1.771468 0.841577,-1.373102 0.723622,-2.022715 0.767912,-4.370276 0.05906,-3.77972 -0.310368,-4.458966 -1.535824,-7.027995 1.225456,-2.554264 1.71278,-1.697922 1.830896,-6.747392 0.172663,-4.765081 -0.162338,-4.591533 -0.132808,-5.034835 -0.04429,-1.033517 -1.196103,-1.889732 -2.524911,-1.919262 l -17.451711,-3.9e-5 c -0.94493,0.08859 -1.03338,0.339522 -1.09244,1.062984 l -0.484889,22.113186 c 0.650802,-0.420923 2.436851,-1.495793 4.945461,-3.110372 0,0 0.538615,-0.270373 1.001357,-0.617684 -0.08708,-1.170154 0.04528,-2.698961 0.532537,-2.881684 v -5.16e-4 c 0,0 8.253544,-0.191939 8.652186,0 0.797285,1.240221 0.826814,3.277627 0,4.399731 m -9.641272,-13.99656 c 1.827018,-0.125281 8.272407,-0.177482 10.172505,0 0.542885,0.542885 0.478385,2.804303 0.02946,3.336748 -1.931419,0.177482 -10.201961,0 -10.201961,0 -0.553325,-0.417604 -0.522005,-2.825183 0,-3.336748 z" /></g><g
         id="g99"
         transform="translate(-1.300086,33.058093)"><path
           style="fill:#4c2d69;fill-opacity:1;stroke-width:3.97899;stroke-dasharray:none"
           d="m 115.98953,46.729893 -0.0209,-1.879217 c 0.54288,-1.691296 0.72086,-2.154904 1.70223,-2.948352 0.6264,-0.354963 0.75333,-0.694897 2.0479,-0.548736 h 15.87204 c 0.95005,0.381063 0.61944,0.822093 0.68208,2.993634 -0.0626,1.440734 -0.18799,1.693339 -0.77264,2.883511 -0.4176,0.459364 -1.10557,0.909345 -2.04518,1.180788 h -10.93005 c -0.51676,0.05906 -0.70284,0.09749 -0.85048,0.850482 l -0.0418,0.526839 -2.94972,-3.278192 c -0.49409,-0.009 -1.33694,0.24537 -1.69129,0.762129 z"
           id="path98" /><path
           id="path99"
           style="fill:#5c3789;fill-opacity:1;stroke-width:3.97899;stroke-dasharray:none"
           d="m 119.95589,41.71357 c -0.90012,-0.028 -1.06575,0.271284 -1.61385,0.581877 -0.98137,0.793448 -1.15934,1.256845 -1.70222,2.948141 v 1.838647 c 2.11915,1.155166 4.28956,2.342867 5.70611,3.124874 v -0.551904 c 0.14764,-0.752992 0.22893,-1.167222 0.74569,-1.226282 l 10.99261,0.02067 c 0.93961,-0.271443 1.66961,-0.366425 2.08721,-0.825789 0.58465,-1.190172 0.70996,-1.442811 0.77256,-2.883545 -0.0626,-2.171541 -0.0712,-2.137528 -0.80202,-2.993616 h -15.75201 c -0.16182,-0.01827 -0.30549,-0.02907 -0.43408,-0.03307 z" /></g><g
         id="g103"
         transform="translate(-3.5115444,30.888417)"><path
           id="path100"
           style="fill:#4c2d69;fill-opacity:1;stroke-width:3.97899;stroke-dasharray:none"
           d="m 131.47393,62.408469 c 2.16525,1.256231 4.90032,2.696669 6.45501,3.646679 -0.0664,-2.24488 0.56096,-3.624274 -1.13286,-3.646679 z" /><path
           id="path101"
           style="fill:#4c2d69;fill-opacity:1;stroke-width:3.97899;stroke-dasharray:none"
           d="m 120.13353,52.634389 c 0,0 -1.19844,1.005618 -1.449,1.778186 -0.58465,1.002249 -1.0351,1.759657 -1.01338,2.185396 -0.0109,2.013907 0,8.284249 0,8.284249 0.0295,0.572126 0.25707,1.891128 0.77908,2.809857 1.67041,1.842678 2.21247,1.544399 2.21247,1.544399 h 16.89096 l 0.32453,-0.472322 c 0.006,-0.426653 0.009,-0.861557 0.007,-1.292945 -1.89735,-0.593176 -5.81789,-1.873045 -9.52293,-3.287138 -0.0845,-0.03225 -0.16734,-0.06416 -0.24857,-0.0956 -2.0137,-0.702195 -2.93234,-1.025324 -3.54751,-1.266594 l -1.046,-0.413407 c -0.60554,-0.417604 -0.56431,-2.106331 -0.56431,-2.106331 0,0 -0.27512,-1.073286 1.18649,-2.054655 h 8.75709 c 0.89784,-0.563766 2.08618,-3.6127 2.08618,-3.6127 0,0 1.13472,-1.455591 -1.15497,-2.000394 0,0 -13.36862,-0.276836 -13.69713,-1e-6 z" /><path
           id="path102"
           style="fill:#5c3789;fill-opacity:1;stroke-width:3.97899;stroke-dasharray:none"
           d="m 132.11885,62.784157 c 2.37208,1.387294 5.05935,2.847407 6.30069,3.613704 -0.066,-2.248859 -0.24718,-3.889202 -0.99714,-3.613704 z" /><path
           id="path103"
           style="fill:#5c3789;fill-opacity:1;stroke-width:3.97899;stroke-dasharray:none"
           d="m 120.75985,53.010593 c 0,0 -1.19845,1.005618 -1.44901,1.778186 -0.58465,1.002249 -0.52562,0.856072 -1.01285,2.18488 0.0465,1.904286 0,8.284249 0,8.284249 0,0 0.22523,1.870764 0.74724,2.789493 0.58464,0.668166 0.82967,1.089738 2.2443,1.564763 h 16.89045 l 0.32504,-0.472323 c 0.006,-0.486938 0.0273,-1.039064 0.0243,-1.530173 -1.51353,-0.460263 -6.27906,-2.268613 -10.10436,-3.456917 -0.0864,-0.02683 -0.11512,-0.0224 -0.31121,-0.10604 -1.45333,-0.506791 -1.97901,-0.654097 -3.04433,-1.070614 l -0.90759,-0.339584 c -0.60554,-0.417604 -0.57958,-1.958687 -0.57958,-1.958687 0,0 -0.27512,-1.073285 1.18649,-2.054654 h 8.75709 c 0.89784,-0.563766 2.08617,-3.6127 2.08617,-3.6127 0,0 0.28577,-1.853717 -1.15496,-1.999878 0,0 -13.12507,-0.19194 -13.6972,-10e-7 z" /></g></g></g></svg>
